<svg width="28" height="27" viewBox="0 0 28 27" fill="none" xmlns="http://www.w3.org/2000/svg">
<path d="M2.08256 23.7422C3.81423 26 7.03511 26 13.4783 26H14.5202C20.9634 26 24.1858 26 25.9174 23.7422M2.08256 23.7422C0.350903 21.4828 0.94544 18.0547 2.13307 11.1953C2.97726 6.32031 3.39863 3.88125 5.00186 2.44062M25.9174 23.7422C27.6491 21.4828 27.0546 18.0547 25.8669 11.1953C25.0227 6.32031 24.5999 3.88125 22.9967 2.44062M22.9967 2.44062C21.3949 1 19.1019 1 14.5202 1H13.4783C8.89665 1 6.60509 1 5.00186 2.44062" stroke="#6F6F6F" stroke-width="2"/>
<path d="M9.91211 7.25C10.2102 8.1649 10.7631 8.95714 11.4946 9.51752C12.226 10.0779 13.0999 10.3788 13.9959 10.3788C14.892 10.3788 15.7659 10.0779 16.4973 9.51752C17.2288 8.95714 17.7816 8.1649 18.0798 7.25" stroke="#6F6F6F" stroke-width="2" stroke-linecap="round"/>
</svg>
