<svg width="25" height="25" viewBox="0 0 25 25" fill="none" xmlns="http://www.w3.org/2000/svg">
<path d="M1 24L1 15.375L9.625 15.375L9.625 24L1 24ZM1 9.625L1 1L9.625 1L9.625 9.625L1 9.625ZM15.375 24L15.375 15.375L24 15.375L24 24L15.375 24ZM19.6875 9.625C20.8312 9.625 21.9281 9.17065 22.7369 8.3619C23.5456 7.55315 24 6.45625 24 5.3125C24 4.16875 23.5456 3.07185 22.7369 2.2631C21.9281 1.45435 20.8312 1 19.6875 1C18.5438 1 17.4469 1.45435 16.6381 2.2631C15.8294 3.07185 15.375 4.16875 15.375 5.3125C15.375 6.45625 15.8294 7.55315 16.6381 8.3619C17.4469 9.17065 18.5438 9.625 19.6875 9.625Z" stroke="#6F6F6F" stroke-width="1.8" stroke-linecap="round" stroke-linejoin="round"/>
</svg>
