<svg width="23" height="24" viewBox="0 0 23 24" fill="none" xmlns="http://www.w3.org/2000/svg">
<path d="M9.07895 3.9V4.2H13.9211V3.9C13.9211 3.26348 13.666 2.65303 13.2119 2.20294C12.7579 1.75286 12.1421 1.5 11.5 1.5C10.8579 1.5 10.2421 1.75286 9.78806 2.20294C9.33402 2.65303 9.07895 3.26348 9.07895 3.9ZM7.56579 4.2V3.9C7.56579 2.86566 7.98029 1.87368 8.71809 1.14228C9.4559 0.410892 10.4566 0 11.5 0C12.5434 0 13.5441 0.410892 14.2819 1.14228C15.0197 1.87368 15.4342 2.86566 15.4342 3.9V4.2H22.2434C22.4441 4.2 22.6365 4.27902 22.7784 4.41967C22.9203 4.56032 23 4.75109 23 4.95C23 5.14891 22.9203 5.33968 22.7784 5.48033C22.6365 5.62098 22.4441 5.7 22.2434 5.7H20.4779L19.2673 20.0136C19.1754 21.1006 18.6748 22.1136 17.8648 22.852C17.0549 23.5903 15.9947 24.0001 14.8943 24H8.10568C7.00543 23.9999 5.94536 23.5901 5.13554 22.8518C4.32571 22.1134 3.82523 21.1005 3.73326 20.0136L2.52274 5.7H0.756579C0.555922 5.7 0.363483 5.62098 0.221597 5.48033C0.0797108 5.33968 0 5.14891 0 4.95C0 4.75109 0.0797108 4.56032 0.221597 4.41967C0.363483 4.27902 0.555922 4.2 0.756579 4.2H7.56579ZM5.24097 19.8882C5.30122 20.6003 5.62913 21.264 6.15971 21.7477C6.69029 22.2314 7.38482 22.4999 8.10568 22.5H14.8943C15.6153 22.5001 16.31 22.2317 16.8407 21.7479C17.3714 21.2642 17.6994 20.6004 17.7596 19.8882L18.9593 5.7H4.04074L5.24097 19.8882ZM9.98684 9.75C9.98684 9.65151 9.96727 9.55398 9.92925 9.46299C9.89123 9.37199 9.8355 9.28931 9.76525 9.21967C9.69499 9.15003 9.61159 9.09478 9.51979 9.05709C9.428 9.0194 9.32962 9 9.23026 9C9.13091 9 9.03253 9.0194 8.94073 9.05709C8.84894 9.09478 8.76554 9.15003 8.69528 9.21967C8.62503 9.28931 8.5693 9.37199 8.53127 9.46299C8.49325 9.55398 8.47368 9.65151 8.47368 9.75V18.45C8.47368 18.5485 8.49325 18.646 8.53127 18.737C8.5693 18.828 8.62503 18.9107 8.69528 18.9803C8.76554 19.05 8.84894 19.1052 8.94073 19.1429C9.03253 19.1806 9.13091 19.2 9.23026 19.2C9.32962 19.2 9.428 19.1806 9.51979 19.1429C9.61159 19.1052 9.69499 19.05 9.76525 18.9803C9.8355 18.9107 9.89123 18.828 9.92925 18.737C9.96727 18.646 9.98684 18.5485 9.98684 18.45V9.75ZM13.7697 9C14.1874 9 14.5263 9.336 14.5263 9.75V18.45C14.5263 18.6489 14.4466 18.8397 14.3047 18.9803C14.1628 19.121 13.9704 19.2 13.7697 19.2C13.5691 19.2 13.3766 19.121 13.2348 18.9803C13.0929 18.8397 13.0132 18.6489 13.0132 18.45V9.75C13.0132 9.336 13.3521 9 13.7697 9Z" fill="#111111"/>
</svg>
