<svg width="23" height="25" viewBox="0 0 23 25" fill="none" xmlns="http://www.w3.org/2000/svg">
<path d="M10.1833 0.52516C10.5391 0.18791 11.0103 0 11.5 0C11.9897 0 12.4609 0.18791 12.8168 0.52516L22.1011 9.32258C22.6761 9.86629 23 10.6252 23 11.4167V22.1181C23 22.8824 22.6971 23.6155 22.1579 24.1559C21.6188 24.6964 20.8875 25 20.125 25H16.2917C15.914 25 15.5399 24.9254 15.191 24.7804C14.8421 24.6355 14.525 24.423 14.2581 24.1552C13.9911 23.8874 13.7793 23.5695 13.635 23.2196C13.4906 22.8698 13.4164 22.4948 13.4167 22.1162V17.3131C13.4167 17.0583 13.3157 16.814 13.136 16.6338C12.9563 16.4536 12.7125 16.3524 12.4583 16.3524H10.5417C10.2875 16.3524 10.0437 16.4536 9.86402 16.6338C9.6843 16.814 9.58333 17.0583 9.58333 17.3131V22.1162C9.58333 22.8805 9.28043 23.6135 8.74127 24.154C8.2021 24.6945 7.47083 24.9981 6.70833 24.9981H2.875C2.1125 24.9981 1.38124 24.6945 0.842068 24.154C0.302901 23.6135 0 22.8805 0 22.1162V11.4148C0 10.6233 0.325833 9.86437 0.900833 9.32066L10.1833 0.521318V0.52516ZM11.5 1.91999L2.21567 10.7193C2.12141 10.8089 2.04631 10.9167 1.99491 11.0363C1.94351 11.1559 1.91689 11.2846 1.91667 11.4148V22.1162C1.91667 22.371 2.01763 22.6153 2.19736 22.7955C2.37708 22.9756 2.62083 23.0768 2.875 23.0768H6.70833C6.9625 23.0768 7.20625 22.9756 7.38598 22.7955C7.5657 22.6153 7.66667 22.371 7.66667 22.1162V17.3131C7.66667 16.5487 7.96957 15.8157 8.50873 15.2753C9.0479 14.7348 9.77917 14.4312 10.5417 14.4312H12.4583C13.2208 14.4312 13.9521 14.7348 14.4913 15.2753C15.0304 15.8157 15.3333 16.5487 15.3333 17.3131V22.1162C15.3333 22.371 15.4343 22.6153 15.614 22.7955C15.7937 22.9756 16.0375 23.0768 16.2917 23.0768H20.125C20.3792 23.0768 20.6229 22.9756 20.8026 22.7955C20.9824 22.6153 21.0833 22.371 21.0833 22.1162V11.4148C21.0834 11.2843 21.0569 11.1552 21.0055 11.0353C20.9541 10.9153 20.8788 10.8072 20.7843 10.7174L11.5 1.91999Z" fill="#111111"/>
</svg>
