<svg width="100" height="100" viewBox="0 0 100 100" fill="none" xmlns="http://www.w3.org/2000/svg">
<path d="M21.0639 30.8203C20.478 26.3828 19.4858 18.5624 20.142 14.2578C20.7983 9.95307 22.517 5.98432 26.103 4.41401C29.2045 3.06245 33.0717 4.49213 35.3061 7.83588C36.5795 9.74213 37.3061 12.0937 37.9233 14.4218C38.978 18.4218 39.9858 23.8906 40.4936 28.0078" stroke="#00796B" stroke-width="3" stroke-miterlimit="10"/>
<path d="M23.9922 91.125L5.10938 83.2578L9.49219 63.9297L8.55469 19.8828L56.3359 14.2734V18.4453L67.7031 19.8828L23.9922 91.125Z" fill="#26A69A"/>
<path d="M71.7578 83.9375L23.9844 91.1719L19.9219 65.875V27.1094L67.7031 19.8828V58.6406L71.7578 83.9375Z" fill="#61DE9F"/>
<path d="M19.9219 27.1094V22.75L8.55469 19.8828L56.4297 14.5703L57.9609 17.961L67.7031 19.8828L19.9219 27.1094Z" fill="#263238"/>
<path d="M5.10938 83.2578C5.4375 83.2578 16.4219 74.5469 16.4219 74.5469L23.9844 91.1719L22.3594 64.6641L19.8985 27.1094L16.7031 67.6953L5.10938 83.2578Z" fill="#00796B"/>
<path d="M56.289 15.0703L57.4453 17.7422L57.5937 18.0938L57.9609 18.1875L63.7812 19.6797L20.7031 26.2031V22.1406L20.1094 21.9922L12.8594 20.1641L56.289 15.0703ZM56.7812 14.2266L8.5625 19.8828L19.9297 22.75V27.1172L67.7031 19.8828L58.164 17.4297L56.7812 14.2266Z" fill="#26A69A"/>
<path d="M34.3353 30.039C33.7494 25.6093 27.6478 8.59369 39.3275 6.42181C48.1556 4.78119 52.0541 23.5859 52.5697 27.7109" stroke="#61DE9F" stroke-width="3" stroke-miterlimit="10"/>
<path d="M35.7891 31.2735C35.1094 28.9844 34.3984 24.3594 34.3672 24.1563L36.6797 23.8047C36.6875 23.8516 37.5156 28.5703 38.4219 30.7813L35.7891 31.2735ZM54.0078 28.5C53.3281 26.211 52.6172 21.586 52.5859 21.3828L54.8984 21.0313C54.9062 21.0781 55.8672 25.875 56.6719 28.0156L54.0078 28.5ZM36.5937 89.2657L43.1562 77.8985L40.0234 47.5938L66.25 42.4922L52.1875 86.9376L36.5937 89.2657Z" fill="#26A69A"/>
<path d="M57.0876 44.5703C57.0876 44.5703 54.1344 28.8906 63.9704 29.9297C69.3219 30.4922 69.1032 42.9375 69.1032 42.9375" stroke="#D7578A" stroke-width="3" stroke-miterlimit="10"/>
<path d="M58.1719 96.8672L43.6641 90.7969L47.0391 75.9375L46.3203 42.0782L83.039 37.7657V40.9766L91.7734 42.0782L58.1719 96.8672Z" fill="#D7578A"/>
<path d="M94.8906 91.3125L58.1719 96.875L55.0547 77.4297V47.6407L91.7734 42.0782V71.875L94.8906 91.3125Z" fill="#FF9F9F"/>
<path d="M55.0547 47.6407L52.1172 45.3907L46.3203 42.0782L83.039 37.7657L86.375 39.8672L91.7734 42.0782L55.0547 47.6407Z" fill="#263238"/>
<path d="M82.8984 38.5703L89.1875 41.6719L55.2187 46.8125L48.5859 42.5938L82.8984 38.5703ZM83.039 37.7657L46.3203 42.0782L55.0547 47.6407L91.7734 42.0782L83.039 37.7657Z" fill="#D7578A"/>
<path d="M67.4688 50.6328C66.9454 48.8828 66.4063 45.3281 66.3829 45.1797L68.4454 44.9141C68.4532 44.9531 68.9766 48.5313 69.461 50.1797L67.4688 50.6328ZM81.4454 48.4844C80.9219 46.7344 80.3829 43.1797 80.3594 43.0313L82.3985 42.7734C82.4063 42.8125 82.8282 46.5 83.3126 48.1484L81.4454 48.4844Z" fill="#D7578A"/>
<path d="M66.3123 50.7109C65.8592 47.3047 61.2185 32.9453 69.9685 31.7343C76.8045 30.789 79.7498 44.9297 80.1482 48.0937" stroke="#FF9F9F" stroke-width="3" stroke-miterlimit="10"/>
<path d="M43.6641 90.7969L51.0781 84.5156L58.1719 96.875L55.0703 77.5469L55.1016 47.7343L54.2266 47.375L51.4609 77.6797L43.6641 90.7969Z" fill="#AB2C5E"/>
</svg>
