<svg width="62" height="62" viewBox="0 0 62 62" fill="none" xmlns="http://www.w3.org/2000/svg">
<circle cx="31" cy="31" r="26.5" stroke="#18AA59" stroke-opacity="0.75" stroke-width="3"/>
<circle cx="31" cy="31" r="29.5" stroke="#18AA59" stroke-opacity="0.5" stroke-width="3"/>
<path fill-rule="evenodd" clip-rule="evenodd" d="M6 31C6 24.3696 8.63392 18.0107 13.3223 13.3223C18.0107 8.63392 24.3696 6 31 6C37.6304 6 43.9893 8.63392 48.6777 13.3223C53.3661 18.0107 56 24.3696 56 31C56 37.6304 53.3661 43.9893 48.6777 48.6777C43.9893 53.3661 37.6304 56 31 56C24.3696 56 18.0107 53.3661 13.3223 48.6777C8.63392 43.9893 6 37.6304 6 31ZM29.5733 41.7L43.9667 23.7067L41.3667 21.6267L29.0933 36.9633L20.4 29.72L18.2667 32.28L29.5733 41.7033V41.7Z" fill="#18AA59"/>
</svg>
